<svg width="20" height="18" viewBox="0 0 20 18" fill="none" xmlns="http://www.w3.org/2000/svg">
<path fill-rule="evenodd" clip-rule="evenodd" d="M6.30959 1.50031H13.9696C16.7592 1.50031 18.334 2.94705 18.3422 5.4978V12.5028C18.3422 15.0528 16.7592 16.5003 13.9696 16.5003H6.30959C3.52001 16.5003 1.93781 15.0528 1.93781 12.5028V5.4978C1.93781 2.94705 3.52001 1.50031 6.30959 1.50031ZM10.1803 13.3953C10.5338 13.3953 10.8282 13.1553 10.8611 12.8328V5.1903C10.8939 4.9578 10.7716 4.72455 10.5502 4.5978C10.3197 4.4703 10.0408 4.4703 9.82019 4.5978C9.59791 4.72455 9.4757 4.9578 9.49948 5.1903V12.8328C9.54132 13.1553 9.83577 13.3953 10.1803 13.3953ZM13.9541 13.3953C14.2986 13.3953 14.5931 13.1553 14.6349 12.8328V10.3728C14.6587 10.1321 14.5365 9.90781 14.3142 9.78031C14.0935 9.65281 13.8147 9.65281 13.585 9.78031C13.3627 9.90781 13.2405 10.1321 13.2733 10.3728V12.8328C13.3061 13.1553 13.6006 13.3953 13.9541 13.3953ZM7.03879 12.8328C7.00598 13.1553 6.71152 13.3953 6.35801 13.3953C6.00531 13.3953 5.71003 13.1553 5.67804 12.8328V7.6503C5.65343 7.41705 5.77565 7.1853 5.99793 7.0578C6.21857 6.9303 6.49826 6.9303 6.71972 7.0578C6.94036 7.1853 7.06422 7.41705 7.03879 7.6503V12.8328Z" fill="#344CE6"/>
</svg>
