<svg width="20" height="18" viewBox="0 0 20 18" fill="none" xmlns="http://www.w3.org/2000/svg">
<path fill-rule="evenodd" clip-rule="evenodd" d="M6.70302 1.5H13.5773C16.111 1.5 17.5217 2.835 17.5217 5.1225V12.87C17.5217 15.195 16.111 16.5 13.5773 16.5H6.70302C4.20954 16.5 2.75775 15.195 2.75775 12.87V5.1225C2.75775 2.835 4.20954 1.5 6.70302 1.5ZM6.92459 4.995V4.9875H9.37624C9.72975 4.9875 10.0168 5.25 10.0168 5.57175C10.0168 5.9025 9.72975 6.165 9.37624 6.165H6.92459C6.57108 6.165 6.28482 5.9025 6.28482 5.58C6.28482 5.2575 6.57108 4.995 6.92459 4.995ZM6.92459 9.555H13.3551C13.7078 9.555 13.9949 9.2925 13.9949 8.97C13.9949 8.6475 13.7078 8.38425 13.3551 8.38425H6.92459C6.57108 8.38425 6.28482 8.6475 6.28482 8.97C6.28482 9.2925 6.57108 9.555 6.92459 9.555ZM6.9245 12.9825H13.355C13.6823 12.9525 13.9292 12.6967 13.9292 12.3975C13.9292 12.09 13.6823 11.835 13.355 11.805H6.9245C6.67843 11.7825 6.44057 11.8875 6.30933 12.0825C6.1781 12.27 6.1781 12.5175 6.30933 12.7125C6.44057 12.9 6.67843 13.0125 6.9245 12.9825Z" fill="#041FD2"/>
</svg>
