<svg width="18" height="16" viewBox="0 0 18 16" fill="none" xmlns="http://www.w3.org/2000/svg">
<path fill-rule="evenodd" clip-rule="evenodd" d="M5.58804 0.499428H12.6994C15.4799 0.499428 17.3418 2.28443 17.3418 4.93943V11.0677C17.3418 13.7152 15.4799 15.4994 12.6994 15.4994H5.58804C2.80748 15.4994 0.937378 13.7152 0.937378 11.0677V4.93943C0.937378 2.28443 2.80748 0.499428 5.58804 0.499428ZM9.13146 5.79519C8.74596 5.79519 8.42607 5.50194 8.42607 5.14269C8.42607 4.77519 8.74596 4.48269 9.14787 4.48269C9.54157 4.48269 9.86146 4.77519 9.86146 5.14269C9.86146 5.50194 9.54157 5.79519 9.13146 5.79519ZM9.85312 10.8352C9.85312 11.1952 9.53323 11.4877 9.13132 11.4877C8.73762 11.4877 8.41773 11.1952 8.41773 10.8352V7.52017C8.41773 7.15942 8.73762 6.86017 9.13132 6.86017C9.53323 6.86017 9.85312 7.15942 9.85312 7.52017V10.8352Z" fill="#344CE6"/>
</svg>
