<svg width="20" height="18" viewBox="0 0 20 18" fill="none" xmlns="http://www.w3.org/2000/svg">
<path fill-rule="evenodd" clip-rule="evenodd" d="M17.0314 10.1851C17.3247 10.3276 17.5511 10.5526 17.7103 10.7776C18.0205 11.2426 17.9953 11.8126 17.6936 12.3151L17.1068 13.2151C16.7967 13.6951 16.2183 13.9951 15.6231 13.9951C15.3298 13.9951 15.0028 13.9201 14.7346 13.7701C14.5167 13.6426 14.2652 13.5976 13.997 13.5976C13.1671 13.5976 12.4714 14.2201 12.4462 14.9626C12.4462 15.8251 11.6751 16.5001 10.7111 16.5001H9.5711C8.59876 16.5001 7.82758 15.8251 7.82758 14.9626C7.81082 14.2201 7.11509 13.5976 6.28524 13.5976C6.00862 13.5976 5.75715 13.6426 5.54759 13.7701C5.27936 13.9201 4.94407 13.9951 4.65907 13.9951C4.05554 13.9951 3.47716 13.6951 3.16701 13.2151L2.58863 12.3151C2.27849 11.8276 2.26172 11.2426 2.57187 10.7776C2.70599 10.5526 2.95746 10.3276 3.24246 10.1851C3.47716 10.0801 3.62804 9.90759 3.77054 9.70509C4.18966 9.06009 3.93819 8.21259 3.22569 7.83009C2.39584 7.40259 2.12761 6.45009 2.6054 5.70759L3.16701 4.82259C3.65319 4.08009 4.6926 3.81759 5.53083 4.25259C6.26009 4.61259 7.20729 4.37259 7.63479 3.73509C7.76891 3.52509 7.84435 3.30009 7.82758 3.07509C7.81082 2.78259 7.90302 2.50509 8.06229 2.28009C8.37243 1.81509 8.93405 1.51509 9.54596 1.50009H10.7279C11.3482 1.50009 11.9098 1.81509 12.2199 2.28009C12.3708 2.50509 12.4714 2.78259 12.4462 3.07509C12.4295 3.30009 12.5049 3.52509 12.639 3.73509C13.0665 4.37259 14.0137 4.61259 14.7514 4.25259C15.5812 3.81759 16.629 4.08009 17.1068 4.82259L17.6684 5.70759C18.1546 6.45009 17.8864 7.40259 17.0481 7.83009C16.3356 8.21259 16.0842 9.06009 16.5117 9.70509C16.6458 9.90759 16.7967 10.0801 17.0314 10.1851ZM7.76882 9.0076C7.76882 10.1851 8.83337 11.1226 10.1494 11.1226C11.4654 11.1226 12.5048 10.1851 12.5048 9.0076C12.5048 7.83009 11.4654 6.88509 10.1494 6.88509C8.83337 6.88509 7.76882 7.83009 7.76882 9.0076Z" fill="#344CE6"/>
</svg>
