<svg width="18" height="14" viewBox="0 0 18 14" fill="none" xmlns="http://www.w3.org/2000/svg">
<path fill-rule="evenodd" clip-rule="evenodd" d="M13.8715 4.28637H17.3419C17.3419 1.73846 15.6723 0.250015 12.8435 0.250015H5.43596C2.60711 0.250015 0.9375 1.73846 0.9375 4.25387V9.74616C0.9375 12.2616 2.60711 13.75 5.43596 13.75H12.8435C15.6723 13.75 17.3419 12.2616 17.3419 9.74616V9.51217H13.8715C12.2608 9.51217 10.9551 8.34815 10.9551 6.91227C10.9551 5.47638 12.2608 4.31236 13.8715 4.31236V4.28637ZM13.8713 5.40433H16.7294C17.0676 5.40433 17.3418 5.64877 17.3418 5.95031V7.84824C17.3379 8.14831 17.066 8.39071 16.7294 8.39422H13.937C13.1216 8.404 12.4086 7.9063 12.2236 7.19826C12.131 6.75874 12.261 6.30519 12.5788 5.95918C12.8966 5.61317 13.3697 5.41007 13.8713 5.40433ZM13.9953 7.39976H14.2651C14.6114 7.39976 14.8921 7.1495 14.8921 6.84078C14.8921 6.53207 14.6114 6.2818 14.2651 6.2818H13.9953C13.8297 6.28007 13.6702 6.3375 13.5524 6.4413C13.4346 6.5451 13.3683 6.68662 13.3683 6.83428C13.3683 7.14407 13.6478 7.3962 13.9953 7.39976ZM4.82364 4.28637H9.45333C9.79962 4.28637 10.0803 4.03611 10.0803 3.72739C10.0803 3.41868 9.79962 3.16841 9.45333 3.16841H4.82364C4.48018 3.16839 4.20062 3.41472 4.19662 3.72089C4.1966 4.03068 4.47617 4.28281 4.82364 4.28637Z" fill="#344CE6"/>
</svg>
